<svg width="146" height="153" viewBox="0 0 146 153" fill="none" xmlns="http://www.w3.org/2000/svg">
<g id="face_24px">
<path id="icon/action/face_24px" fill-rule="evenodd" clip-rule="evenodd" d="M133.246 76.4091C133.246 111.551 106.191 140.071 72.855 140.071C39.5194 140.071 12.4644 111.551 12.4644 76.4091C12.4644 41.2676 39.5194 12.7469 72.855 12.7469C106.191 12.7469 133.246 41.2676 133.246 76.4091ZM54.7374 90.7331C58.9044 90.7331 62.2863 87.168 62.2863 82.7753C62.2863 78.3826 58.9044 74.8175 54.7374 74.8175C50.5705 74.8175 47.1886 78.3826 47.1886 82.7753C47.1886 87.168 50.5705 90.7331 54.7374 90.7331ZM83.4233 82.7753C83.4233 78.3826 86.8052 74.8175 90.9721 74.8175C95.1391 74.8175 98.521 78.3826 98.521 82.7753C98.521 87.168 95.1391 90.7331 90.9721 90.7331C86.8052 90.7331 83.4233 87.168 83.4233 82.7753ZM106.071 50.9443C88.5572 50.9443 73.218 41.013 64.7633 26.2434C67.3601 25.7978 70.0777 25.4795 72.8556 25.4795C90.3689 25.4795 105.708 35.4108 114.163 50.1804C111.566 50.626 108.848 50.9443 106.071 50.9443ZM27.0768 60.3028C37.4036 54.1276 45.3752 44.0689 49.1798 32.0368C38.853 38.212 30.8814 48.2706 27.0768 60.3028ZM119.175 62.149C120.443 66.669 121.168 71.4437 121.168 76.4093C121.168 104.484 99.4879 127.339 72.8556 127.339C46.2233 127.339 24.5431 104.484 24.5431 76.4093C24.5431 76.3007 24.5501 76.1922 24.557 76.0861C24.5702 75.8813 24.5829 75.6858 24.5431 75.518C40.2447 69.2792 52.8663 56.4831 59.2073 40.1855C70.3192 54.5095 87.1682 63.6769 106.07 63.6769C110.6 63.6769 114.948 63.1039 119.175 62.149Z" fill="black" fill-opacity="0.54"/>
</g>
</svg>
