<svg width="213" height="48" viewBox="0 0 213 48" fill="red" xmlns="http://www.w3.org/2000/svg">
<path d="M61 32.1498C61 30.8054 61.2125 29.5435 61.6376 28.3642C62.0863 27.1613 62.7239 26.1235 63.5504 25.2508C64.3769 24.3545 65.3805 23.6469 66.5612 23.128C67.7419 22.6091 69.088 22.3496 70.5993 22.3496C71.5911 22.3496 72.5002 22.444 73.3267 22.6327C74.1533 22.7978 74.9561 23.0454 75.7354 23.3756L74.6374 27.5858C74.1414 27.3972 73.5983 27.232 73.008 27.0905C72.4176 26.949 71.7564 26.8783 71.0243 26.8783C69.4658 26.8783 68.2969 27.3618 67.5176 28.3288C66.7619 29.2959 66.3841 30.5695 66.3841 32.1498C66.3841 33.8245 66.7383 35.1217 67.4467 36.0416C68.1788 36.9615 69.4422 37.4214 71.2369 37.4214C71.8745 37.4214 72.5593 37.3625 73.2913 37.2445C74.0234 37.1266 74.6964 36.9379 75.3104 36.6785L76.0542 40.9948C75.4402 41.2542 74.6728 41.4783 73.7518 41.667C72.8308 41.8557 71.8154 41.9501 70.7055 41.9501C69.0053 41.9501 67.5412 41.7024 66.3133 41.2071C65.0853 40.6882 64.0699 39.9924 63.267 39.1197C62.4877 38.247 61.9092 37.2209 61.5313 36.0416C61.1771 34.8387 61 33.5414 61 32.1498Z" fill="white"/>
<path d="M79.5964 41.4547V14.8491L84.8742 14V22.9157C85.2284 22.7978 85.6771 22.6916 86.2202 22.5973C86.787 22.4794 87.3301 22.4204 87.8496 22.4204C89.361 22.4204 90.6125 22.6327 91.6043 23.0572C92.6198 23.4582 93.4227 24.0361 94.013 24.7908C94.627 25.5456 95.0521 26.4419 95.2882 27.4797C95.548 28.5175 95.6778 29.6733 95.6778 30.9469V41.4547H90.4V31.5838C90.4 29.8855 90.1757 28.6826 89.727 27.975C89.3019 27.2674 88.499 26.9136 87.3183 26.9136C86.846 26.9136 86.3974 26.9608 85.9723 27.0552C85.5708 27.1259 85.2048 27.2085 84.8742 27.3028V41.4547H79.5964Z" fill="white"/>
<path d="M107.575 37.7752C108.094 37.7752 108.59 37.7634 109.063 37.7399C109.535 37.7163 109.913 37.6809 110.196 37.6337V33.6358C109.983 33.5886 109.665 33.5414 109.24 33.4943C108.815 33.4471 108.425 33.4235 108.071 33.4235C107.575 33.4235 107.103 33.4589 106.654 33.5297C106.229 33.5768 105.851 33.683 105.52 33.8481C105.19 34.0132 104.93 34.2373 104.741 34.5203C104.552 34.8033 104.458 35.1571 104.458 35.5817C104.458 36.4072 104.729 36.9851 105.272 37.3153C105.839 37.6219 106.607 37.7752 107.575 37.7752ZM107.15 22.3496C108.708 22.3496 110.007 22.5265 111.046 22.8803C112.085 23.2341 112.912 23.7412 113.526 24.4017C114.163 25.0621 114.612 25.864 114.872 26.8075C115.131 27.751 115.261 28.8006 115.261 29.9563V40.924C114.506 41.0891 113.455 41.2778 112.109 41.4901C110.763 41.726 109.133 41.8439 107.221 41.8439C106.016 41.8439 104.918 41.7378 103.926 41.5255C102.958 41.3132 102.12 40.9712 101.411 40.4995C100.703 40.0042 100.16 39.3673 99.782 38.589C99.4042 37.8106 99.2153 36.8554 99.2153 35.7232C99.2153 34.6382 99.4278 33.7183 99.8529 32.9636C100.302 32.2088 100.892 31.6074 101.624 31.1592C102.356 30.7111 103.194 30.3926 104.139 30.204C105.083 29.9917 106.063 29.8855 107.079 29.8855C107.764 29.8855 108.366 29.9209 108.885 29.9917C109.429 30.0388 109.865 30.1096 110.196 30.204V29.7086C110.196 28.8123 109.924 28.093 109.381 27.5505C108.838 27.008 107.894 26.7367 106.548 26.7367C105.65 26.7367 104.765 26.8075 103.891 26.949C103.017 27.0669 102.262 27.2438 101.624 27.4797L100.951 23.2341C101.258 23.1398 101.636 23.0454 102.084 22.9511C102.557 22.8332 103.064 22.7388 103.608 22.6681C104.151 22.5737 104.717 22.5029 105.308 22.4558C105.922 22.385 106.536 22.3496 107.15 22.3496Z" fill="white"/>
<path d="M131.263 27.5151C130.79 27.3972 130.235 27.2792 129.598 27.1613C128.96 27.0198 128.275 26.949 127.543 26.949C127.213 26.949 126.811 26.9844 126.339 27.0552C125.89 27.1023 125.548 27.1613 125.312 27.232V41.4547H120.034V23.8356C120.978 23.5054 122.088 23.1988 123.363 22.9157C124.662 22.6091 126.103 22.4558 127.685 22.4558C127.968 22.4558 128.311 22.4794 128.712 22.5265C129.114 22.5501 129.515 22.5973 129.916 22.6681C130.318 22.7152 130.719 22.786 131.121 22.8803C131.522 22.9511 131.865 23.0454 132.148 23.1634L131.263 27.5151Z" fill="white"/>
<path d="M134.8 18.2102L140.078 17.3611V22.845H146.419V27.232H140.078V33.7773C140.078 34.8859 140.267 35.7704 140.645 36.4308C141.046 37.0912 141.837 37.4214 143.018 37.4214C143.585 37.4214 144.163 37.3743 144.754 37.2799C145.368 37.162 145.923 37.0087 146.419 36.82L147.162 40.924C146.525 41.1835 145.816 41.4076 145.037 41.5963C144.258 41.7849 143.301 41.8793 142.168 41.8793C140.727 41.8793 139.535 41.6906 138.59 41.3132C137.646 40.9122 136.89 40.3698 136.323 39.6857C135.757 38.9781 135.355 38.129 135.119 37.1384C134.907 36.1478 134.8 35.051 134.8 33.8481V18.2102Z" fill="white"/>
<path d="M162.654 32.2914C162.654 30.6639 162.288 29.3666 161.556 28.3996C160.823 27.4089 159.737 26.9136 158.297 26.9136C157.824 26.9136 157.388 26.9372 156.986 26.9844C156.585 27.008 156.254 27.0434 155.994 27.0905V36.6077C156.325 36.82 156.75 36.9969 157.27 37.1384C157.813 37.2799 158.356 37.3507 158.899 37.3507C161.402 37.3507 162.654 35.6642 162.654 32.2914ZM168.038 32.1498C168.038 33.5886 167.861 34.8977 167.506 36.077C167.152 37.2563 166.633 38.2706 165.948 39.1197C165.263 39.9688 164.413 40.6292 163.397 41.1009C162.382 41.5727 161.213 41.8085 159.891 41.8085C159.159 41.8085 158.474 41.7378 157.836 41.5963C157.199 41.4547 156.585 41.2542 155.994 40.9948V48H150.716V23.4818C151.189 23.3403 151.732 23.2105 152.346 23.0926C152.96 22.9511 153.597 22.8332 154.259 22.7388C154.943 22.6445 155.628 22.5737 156.313 22.5265C157.022 22.4558 157.695 22.4204 158.332 22.4204C159.867 22.4204 161.237 22.6563 162.441 23.128C163.645 23.5761 164.661 24.2248 165.487 25.0739C166.314 25.8994 166.94 26.9136 167.365 28.1165C167.813 29.3195 168.038 30.6639 168.038 32.1498Z" fill="white"/>
<path d="M189.522 32.1145C189.522 33.5768 189.309 34.9213 188.884 36.1478C188.459 37.3507 187.845 38.3885 187.042 39.2612C186.239 40.1103 185.271 40.7707 184.137 41.2425C183.028 41.7142 181.776 41.9501 180.383 41.9501C179.013 41.9501 177.762 41.7142 176.628 41.2425C175.518 40.7707 174.562 40.1103 173.759 39.2612C172.956 38.3885 172.33 37.3507 171.882 36.1478C171.433 34.9213 171.209 33.5768 171.209 32.1145C171.209 30.6521 171.433 29.3195 171.882 28.1165C172.354 26.9136 172.991 25.8876 173.794 25.0385C174.621 24.1894 175.589 23.529 176.699 23.0572C177.832 22.5855 179.06 22.3496 180.383 22.3496C181.729 22.3496 182.957 22.5855 184.067 23.0572C185.2 23.529 186.168 24.1894 186.971 25.0385C187.774 25.8876 188.4 26.9136 188.849 28.1165C189.297 29.3195 189.522 30.6521 189.522 32.1145ZM184.137 32.1145C184.137 30.487 183.807 29.2133 183.146 28.2934C182.508 27.35 181.587 26.8783 180.383 26.8783C179.178 26.8783 178.246 27.35 177.584 28.2934C176.923 29.2133 176.593 30.487 176.593 32.1145C176.593 33.7419 176.923 35.0392 177.584 36.0062C178.246 36.9497 179.178 37.4214 180.383 37.4214C181.587 37.4214 182.508 36.9497 183.146 36.0062C183.807 35.0392 184.137 33.7419 184.137 32.1145Z" fill="white"/>
<path d="M201.049 41.8085C199.514 41.7849 198.262 41.6198 197.294 41.3132C196.349 41.0066 195.594 40.582 195.027 40.0395C194.484 39.4735 194.106 38.8012 193.893 38.0229C193.704 37.221 193.61 36.3247 193.61 35.334V14.8491L198.888 14V34.2726C198.888 34.7444 198.923 35.1689 198.994 35.5463C199.065 35.9237 199.195 36.2421 199.384 36.5016C199.596 36.761 199.891 36.9733 200.269 37.1384C200.647 37.3035 201.155 37.4096 201.792 37.4568L201.049 41.8085Z" fill="white"/>
<path d="M212.256 41.8085C210.721 41.7849 209.47 41.6198 208.501 41.3132C207.557 41.0066 206.801 40.582 206.234 40.0395C205.691 39.4735 205.314 38.8012 205.101 38.0229C204.912 37.221 204.818 36.3247 204.818 35.334V14.8491L210.095 14V34.2726C210.095 34.7444 210.131 35.1689 210.202 35.5463C210.273 35.9237 210.402 36.2421 210.591 36.5016C210.804 36.761 211.099 36.9733 211.477 37.1384C211.855 37.3035 212.362 37.4096 213 37.4568L212.256 41.8085Z" fill="white"/>
<path d="M9.75 13.5L24 0V24H0L9.75 13.5Z" fill="white"/>
<path d="M37.6562 13.5L24 0V24H47L37.6562 13.5Z" fill="white"/>
<path d="M33.3438 36.9375L47 24V47H24L33.3438 36.9375Z" fill="white"/>
<path d="M14.25 36.9375L0 24V47H24L14.25 36.9375Z" fill="white"/>
</svg>
