<svg width="24" height="24" viewBox="0 0 24 24" fill="none" xmlns="http://www.w3.org/2000/svg">
<g id="visibility_24px">
<path id="icon/action/visibility_24px" fill-rule="evenodd" clip-rule="evenodd" d="M1.1886 12.0787C2.85212 7.85743 6.95803 4.86694 11.7659 4.86694C16.5738 4.86694 20.6797 7.85743 22.3432 12.0787C20.6797 16.3 16.5738 19.2905 11.7659 19.2905C6.95803 19.2905 2.85212 16.3 1.1886 12.0787ZM20.2469 12.0787C18.6603 8.8382 15.4102 6.79005 11.7658 6.79005C8.12145 6.79005 4.87133 8.8382 3.28473 12.0787C4.87133 15.3192 8.12145 17.3674 11.7658 17.3674C15.4102 17.3674 18.6603 15.3192 20.2469 12.0787ZM11.7658 9.67482C13.0928 9.67482 14.1697 10.7518 14.1697 12.0788C14.1697 13.4057 13.0928 14.4827 11.7658 14.4827C10.4388 14.4827 9.36188 13.4057 9.36188 12.0788C9.36188 10.7518 10.4388 9.67482 11.7658 9.67482ZM7.43879 12.0786C7.43879 9.69386 9.38116 7.75148 11.7659 7.75148C14.1506 7.75148 16.0929 9.69386 16.0929 12.0786C16.0929 14.4633 14.1506 16.4056 11.7659 16.4056C9.38116 16.4056 7.43879 14.4633 7.43879 12.0786Z" fill="#2F80ED"/>
</g>
</svg>
